<svg viewBox="0 0 900 440" xmlns="http://www.w3.org/2000/svg" width="900" height="440">
  <rect width="900" height="440" fill="#0a0a0a" rx="12"/>
  <text x="450" y="28" text-anchor="middle" fill="#CC3300" font-family="monospace" font-size="11" font-weight="bold" letter-spacing="3">AI-PERSONALIZED EMAIL RESPONSES · 5 CATEGORIES</text>

  <!-- Card 1: Beginner -->
  <rect x="20" y="44" width="166" height="180" rx="8" fill="#1a1a1a" stroke="#CC3300" stroke-width="1.5"/>
  <rect x="20" y="44" width="166" height="5" rx="3" fill="#CC3300"/>
  <rect x="20" y="44" width="166" height="28" rx="8" fill="#CC3300"/>
  <rect x="20" y="60" width="166" height="12" fill="#CC3300"/>
  <text x="103" y="63" text-anchor="middle" fill="white" font-family="monospace" font-size="9" font-weight="bold">BEGINNER</text>
  <text x="103" y="85" text-anchor="middle" fill="#888" font-family="Arial" font-size="8">MIG / STICK Welding</text>
  <text x="103" y="100" text-anchor="middle" fill="#CC3300" font-family="Arial" font-size="8" font-weight="bold">Hi Alex, welcome!</text>
  <rect x="30" y="106" width="146" height="3" rx="1" fill="#CC3300" opacity="0.3"/>
  <text x="30" y="120" fill="#666" font-family="Arial" font-size="7">Thanks for your interest in</text>
  <text x="30" y="131" fill="#666" font-family="Arial" font-size="7">MIG/STICK welding. You've</text>
  <text x="30" y="142" fill="#666" font-family="Arial" font-size="7">picked a great place to start.</text>
  <rect x="30" y="150" width="146" height="28" rx="4" fill="#1f1010"/>
  <text x="38" y="163" fill="#CC3300" font-family="Arial" font-size="7" font-weight="bold">Hands-on from day one</text>
  <text x="38" y="174" fill="#555" font-family="Arial" font-size="7">Real job sites · Beginner-friendly</text>
  <text x="30" y="198" fill="#777" font-family="Arial" font-size="7">We'll be in touch shortly!</text>
  <text x="30" y="212" fill="#CC3300" font-family="Arial" font-size="7" font-weight="bold">— Elite Metal Works Team</text>

  <!-- Card 2: Advanced -->
  <rect x="198" y="44" width="166" height="180" rx="8" fill="#1a1a1a" stroke="#7c3aed" stroke-width="1.5"/>
  <rect x="198" y="44" width="166" height="28" rx="8" fill="#7c3aed"/>
  <rect x="198" y="60" width="166" height="12" fill="#7c3aed"/>
  <text x="281" y="63" text-anchor="middle" fill="white" font-family="monospace" font-size="9" font-weight="bold">ADVANCED</text>
  <text x="281" y="85" text-anchor="middle" fill="#888" font-family="Arial" font-size="8">TIG Welding</text>
  <text x="281" y="100" text-anchor="middle" fill="#a78bfa" font-family="Arial" font-size="8" font-weight="bold">Hi Jordan, great choice!</text>
  <rect x="208" y="106" width="146" height="3" rx="1" fill="#7c3aed" opacity="0.3"/>
  <text x="208" y="120" fill="#666" font-family="Arial" font-size="7">TIG welding is one of the most</text>
  <text x="208" y="131" fill="#666" font-family="Arial" font-size="7">precise skills in the trade.</text>
  <text x="208" y="142" fill="#666" font-family="Arial" font-size="7">You've come to the right place.</text>
  <rect x="208" y="150" width="146" height="28" rx="4" fill="#110f1f"/>
  <text x="216" y="163" fill="#a78bfa" font-family="Arial" font-size="7" font-weight="bold">Advanced TIG Program</text>
  <text x="216" y="174" fill="#555" font-family="Arial" font-size="7">Real job sites · Personal instruction</text>
  <text x="208" y="198" fill="#777" font-family="Arial" font-size="7">Someone will follow up shortly.</text>
  <text x="208" y="212" fill="#CC3300" font-family="Arial" font-size="7" font-weight="bold">— Elite Metal Works Team</text>

  <!-- Card 3: Client -->
  <rect x="376" y="44" width="166" height="180" rx="8" fill="#1a1a1a" stroke="#16a34a" stroke-width="1.5"/>
  <rect x="376" y="44" width="166" height="28" rx="8" fill="#16a34a"/>
  <rect x="376" y="60" width="166" height="12" fill="#16a34a"/>
  <text x="459" y="63" text-anchor="middle" fill="white" font-family="monospace" font-size="9" font-weight="bold">CLIENT</text>
  <text x="459" y="85" text-anchor="middle" fill="#888" font-family="Arial" font-size="8">Local Welding Work</text>
  <text x="459" y="100" text-anchor="middle" fill="#4ade80" font-family="Arial" font-size="8" font-weight="bold">Hi Maria, we can help!</text>
  <rect x="386" y="106" width="146" height="3" rx="1" fill="#16a34a" opacity="0.3"/>
  <text x="386" y="120" fill="#666" font-family="Arial" font-size="7">We received your project inquiry.</text>
  <text x="386" y="131" fill="#666" font-family="Arial" font-size="7">Elite Metal Works takes on local</text>
  <text x="386" y="142" fill="#666" font-family="Arial" font-size="7">repair &amp; fabrication work.</text>
  <rect x="386" y="150" width="146" height="28" rx="4" fill="#0f1a10"/>
  <text x="394" y="163" fill="#4ade80" font-family="Arial" font-size="7" font-weight="bold">Local Community Work</text>
  <text x="394" y="174" fill="#555" font-family="Arial" font-size="7">Owner reviews project personally</text>
  <text x="386" y="198" fill="#777" font-family="Arial" font-size="7">Reply with project photos!</text>
  <text x="386" y="212" fill="#CC3300" font-family="Arial" font-size="7" font-weight="bold">— Elite Metal Works Team</text>

  <!-- Card 4: Kids -->
  <rect x="554" y="44" width="166" height="180" rx="8" fill="#1a1a1a" stroke="#0ea5e9" stroke-width="1.5"/>
  <rect x="554" y="44" width="166" height="28" rx="8" fill="#0ea5e9"/>
  <rect x="554" y="60" width="166" height="12" fill="#0ea5e9"/>
  <text x="637" y="63" text-anchor="middle" fill="white" font-family="monospace" font-size="9" font-weight="bold">KIDS WORKSHOP</text>
  <text x="637" y="85" text-anchor="middle" fill="#888" font-family="Arial" font-size="8">Parents Inquiring</text>
  <text x="637" y="100" text-anchor="middle" fill="#38bdf8" font-family="Arial" font-size="8" font-weight="bold">Hi Sarah, we're excited!</text>
  <rect x="564" y="106" width="146" height="3" rx="1" fill="#0ea5e9" opacity="0.3"/>
  <text x="564" y="120" fill="#666" font-family="Arial" font-size="7">Our Kids Workshop is safe,</text>
  <text x="564" y="131" fill="#666" font-family="Arial" font-size="7">fun, and educational for</text>
  <text x="564" y="142" fill="#666" font-family="Arial" font-size="7">young learners.</text>
  <rect x="564" y="150" width="146" height="28" rx="4" fill="#0a1520"/>
  <text x="572" y="163" fill="#38bdf8" font-family="Arial" font-size="7" font-weight="bold">Kids Workshop Program</text>
  <text x="572" y="174" fill="#555" font-family="Arial" font-size="7">Safe · Supervised · Real skills</text>
  <text x="564" y="198" fill="#777" font-family="Arial" font-size="7">Can't wait to meet your welder!</text>
  <text x="564" y="212" fill="#CC3300" font-family="Arial" font-size="7" font-weight="bold">— Elite Metal Works Team</text>

  <!-- Card 5: Custom -->
  <rect x="732" y="44" width="148" height="180" rx="8" fill="#1a1a1a" stroke="#888" stroke-width="1.5"/>
  <rect x="732" y="44" width="148" height="28" rx="8" fill="#555"/>
  <rect x="732" y="60" width="148" height="12" fill="#555"/>
  <text x="806" y="63" text-anchor="middle" fill="white" font-family="monospace" font-size="9" font-weight="bold">CUSTOM</text>
  <text x="806" y="85" text-anchor="middle" fill="#888" font-family="Arial" font-size="8">General Inquiries</text>
  <text x="806" y="100" text-anchor="middle" fill="#aaa" font-family="Arial" font-size="8" font-weight="bold">Hi there, we got it!</text>
  <rect x="742" y="106" width="128" height="3" rx="1" fill="#555" opacity="0.3"/>
  <text x="742" y="120" fill="#666" font-family="Arial" font-size="7">Thanks for reaching out to</text>
  <text x="742" y="131" fill="#666" font-family="Arial" font-size="7">Elite Metal Works. Someone</text>
  <text x="742" y="142" fill="#666" font-family="Arial" font-size="7">will follow up personally.</text>
  <rect x="742" y="150" width="128" height="28" rx="4" fill="#1a1a1a" stroke="#333" stroke-width="1"/>
  <text x="750" y="163" fill="#aaa" font-family="Arial" font-size="7" font-weight="bold">Personalized Follow-up</text>
  <text x="750" y="174" fill="#555" font-family="Arial" font-size="7">Reply with any extra details</text>
  <text x="742" y="198" fill="#777" font-family="Arial" font-size="7">Talk to you very soon!</text>
  <text x="742" y="212" fill="#CC3300" font-family="Arial" font-size="7" font-weight="bold">— Elite Metal Works Team</text>

  <!-- How it works section -->
  <rect x="20" y="242" width="860" height="170" rx="8" fill="#111" stroke="#222" stroke-width="1"/>
  <text x="450" y="264" text-anchor="middle" fill="#CC3300" font-family="monospace" font-size="10" font-weight="bold">HOW AI PERSONALIZATION WORKS</text>
  <line x1="20" y1="272" x2="880" y2="272" stroke="#222" stroke-width="1"/>

  <!-- Step flow -->
  <rect x="40" y="284" width="120" height="48" rx="6" fill="#1a1a1a" stroke="#CC3300" stroke-width="1"/>
  <text x="100" y="303" text-anchor="middle" fill="#CC3300" font-family="monospace" font-size="8" font-weight="bold">Form Submit</text>
  <text x="100" y="316" text-anchor="middle" fill="#555" font-family="monospace" font-size="7">Name · Phone · Email</text>
  <text x="100" y="326" text-anchor="middle" fill="#555" font-family="monospace" font-size="7">Class · Message</text>
  <polygon points="162,308 172,308 167,318" fill="#CC3300"/>
  <line x1="160" y1="308" x2="172" y2="308" stroke="#CC3300" stroke-width="1"/>

  <rect x="174" y="284" width="120" height="48" rx="6" fill="#1a1a1a" stroke="#7c3aed" stroke-width="1"/>
  <text x="234" y="303" text-anchor="middle" fill="#a78bfa" font-family="monospace" font-size="8" font-weight="bold">LLaMA 3 AI</text>
  <text x="234" y="316" text-anchor="middle" fill="#555" font-family="monospace" font-size="7">Reads all fields</text>
  <text x="234" y="326" text-anchor="middle" fill="#555" font-family="monospace" font-size="7">Returns JSON</text>
  <line x1="296" y1="308" x2="308" y2="308" stroke="#CC3300" stroke-width="1"/>
  <polygon points="296,308 306,308 301,318" fill="#CC3300"/>

  <rect x="310" y="284" width="120" height="48" rx="6" fill="#1a1a1a" stroke="#f59e0b" stroke-width="1"/>
  <text x="370" y="303" text-anchor="middle" fill="#fcd34d" font-family="monospace" font-size="8" font-weight="bold">Switch Router</text>
  <text x="370" y="316" text-anchor="middle" fill="#555" font-family="monospace" font-size="7">Reads category</text>
  <text x="370" y="326" text-anchor="middle" fill="#555" font-family="monospace" font-size="7">Routes to template</text>
  <line x1="432" y1="308" x2="444" y2="308" stroke="#CC3300" stroke-width="1"/>
  <polygon points="432,308 442,308 437,318" fill="#CC3300"/>

  <rect x="446" y="284" width="120" height="48" rx="6" fill="#1a1a1a" stroke="#16a34a" stroke-width="1"/>
  <text x="506" y="303" text-anchor="middle" fill="#4ade80" font-family="monospace" font-size="8" font-weight="bold">HTML Email</text>
  <text x="506" y="316" text-anchor="middle" fill="#555" font-family="monospace" font-size="7">Branded template</text>
  <text x="506" y="326" text-anchor="middle" fill="#555" font-family="monospace" font-size="7">AI response injected</text>
  <line x1="568" y1="308" x2="580" y2="308" stroke="#CC3300" stroke-width="1"/>
  <polygon points="568,308 578,308 573,318" fill="#CC3300"/>

  <rect x="582" y="284" width="120" height="48" rx="6" fill="#CC3300"/>
  <text x="642" y="303" text-anchor="middle" fill="white" font-family="monospace" font-size="8" font-weight="bold">Delivered</text>
  <text x="642" y="316" text-anchor="middle" fill="#ffccbb" font-family="monospace" font-size="7">Lead inbox</text>
  <text x="642" y="326" text-anchor="middle" fill="#ffccbb" font-family="monospace" font-size="7">Under 30 seconds</text>

  <!-- Sample JSON output -->
  <rect x="724" y="280" width="156" height="90" rx="6" fill="#0d1117" stroke="#333" stroke-width="1"/>
  <text x="734" y="296" fill="#555" font-family="monospace" font-size="7">AI OUTPUT JSON</text>
  <text x="734" y="310" fill="#a78bfa" font-family="monospace" font-size="7">{</text>
  <text x="742" y="322" fill="#4ade80" font-family="monospace" font-size="7">"category":</text>
  <text x="742" y="333" fill="#f97316" font-family="monospace" font-size="7">  "Advanced",</text>
  <text x="742" y="344" fill="#4ade80" font-family="monospace" font-size="7">"ai_response":</text>
  <text x="742" y="355" fill="#888" font-family="monospace" font-size="7">  "Great choice...</text>
  <text x="734" y="366" fill="#a78bfa" font-family="monospace" font-size="7">}</text>

  <text x="450" y="400" text-anchor="middle" fill="#444" font-family="monospace" font-size="8">Every email is unique · AI reads name, class, and message · Responds appropriately · Sent in under 30 seconds</text>

  <text x="450" y="430" text-anchor="middle" fill="#333" font-family="monospace" font-size="8">Built by JPARO Systems · github.com/gmarr0</text>
</svg>
