<svg viewBox="0 0 900 400" xmlns="http://www.w3.org/2000/svg" width="900" height="400">
  <rect width="900" height="400" fill="#0f0f0f" rx="12"/>
  <text x="450" y="30" text-anchor="middle" fill="#CC3300" font-family="monospace" font-size="12" font-weight="bold" letter-spacing="3">AI LEAD MANAGEMENT PIPELINE</text>
  <text x="75" y="58" text-anchor="middle" fill="#555" font-family="monospace" font-size="8">STEP 1</text>
  <text x="220" y="58" text-anchor="middle" fill="#555" font-family="monospace" font-size="8">STEP 2</text>
  <text x="365" y="58" text-anchor="middle" fill="#555" font-family="monospace" font-size="8">STEP 3</text>
  <text x="500" y="58" text-anchor="middle" fill="#555" font-family="monospace" font-size="8">STEP 4</text>
  <text x="635" y="58" text-anchor="middle" fill="#555" font-family="monospace" font-size="8">STEP 5</text>
  <rect x="20" y="65" width="110" height="85" rx="8" fill="#1a1a1a" stroke="#CC3300" stroke-width="1.5"/>
  <rect x="20" y="65" width="110" height="5" rx="3" fill="#CC3300"/>
  <text x="75" y="92" text-anchor="middle" fill="#CC3300" font-family="monospace" font-size="9" font-weight="bold">FORM TRIGGER</text>
  <text x="75" y="107" text-anchor="middle" fill="#777" font-family="monospace" font-size="8">n8n</text>
  <text x="75" y="120" text-anchor="middle" fill="#555" font-family="monospace" font-size="7">Branded Web Form</text>
  <rect x="32" y="130" width="86" height="4" rx="2" fill="#2a2a2a"/>
  <rect x="32" y="138" width="60" height="4" rx="2" fill="#2a2a2a"/>
  <line x1="132" y1="107" x2="163" y2="107" stroke="#CC3300" stroke-width="1.5"/>
  <polygon points="163,103 171,107 163,111" fill="#CC3300"/>
  <rect x="165" y="65" width="110" height="85" rx="8" fill="#1a1a1a" stroke="#7c3aed" stroke-width="1.5"/>
  <rect x="165" y="65" width="110" height="5" rx="3" fill="#7c3aed"/>
  <text x="220" y="92" text-anchor="middle" fill="#a78bfa" font-family="monospace" font-size="9" font-weight="bold">AI CLASSIFIER</text>
  <text x="220" y="107" text-anchor="middle" fill="#777" font-family="monospace" font-size="8">Ollama / LLaMA 3</text>
  <text x="220" y="120" text-anchor="middle" fill="#555" font-family="monospace" font-size="7">Local AI · No API Fees</text>
  <rect x="177" y="130" width="86" height="4" rx="2" fill="#1e1a2e"/>
  <rect x="177" y="138" width="60" height="4" rx="2" fill="#1e1a2e"/>
  <line x1="277" y1="107" x2="308" y2="107" stroke="#CC3300" stroke-width="1.5"/>
  <polygon points="308,103 316,107 308,111" fill="#CC3300"/>
  <rect x="310" y="65" width="110" height="85" rx="8" fill="#1a1a1a" stroke="#16a34a" stroke-width="1.5"/>
  <rect x="310" y="65" width="110" height="5" rx="3" fill="#16a34a"/>
  <text x="365" y="92" text-anchor="middle" fill="#4ade80" font-family="monospace" font-size="9" font-weight="bold">GOOGLE SHEETS</text>
  <text x="365" y="107" text-anchor="middle" fill="#777" font-family="monospace" font-size="8">Lead Logger</text>
  <text x="365" y="120" text-anchor="middle" fill="#555" font-family="monospace" font-size="7">Live Dashboard</text>
  <rect x="322" y="130" width="86" height="4" rx="2" fill="#1a2a1a"/>
  <rect x="322" y="138" width="60" height="4" rx="2" fill="#1a2a1a"/>
  <line x1="422" y1="107" x2="453" y2="107" stroke="#CC3300" stroke-width="1.5"/>
  <polygon points="453,103 461,107 453,111" fill="#CC3300"/>
  <rect x="455" y="65" width="110" height="85" rx="8" fill="#1a1a1a" stroke="#0ea5e9" stroke-width="1.5"/>
  <rect x="455" y="65" width="110" height="5" rx="3" fill="#0ea5e9"/>
  <text x="510" y="92" text-anchor="middle" fill="#38bdf8" font-family="monospace" font-size="9" font-weight="bold">PUSHOVER</text>
  <text x="510" y="107" text-anchor="middle" fill="#777" font-family="monospace" font-size="8">Owner Alert</text>
  <text x="510" y="120" text-anchor="middle" fill="#555" font-family="monospace" font-size="7">Instant Phone Push</text>
  <rect x="467" y="130" width="86" height="4" rx="2" fill="#0a1a2a"/>
  <rect x="467" y="138" width="60" height="4" rx="2" fill="#0a1a2a"/>
  <line x1="567" y1="107" x2="598" y2="107" stroke="#CC3300" stroke-width="1.5"/>
  <polygon points="598,103 606,107 598,111" fill="#CC3300"/>
  <rect x="600" y="65" width="110" height="85" rx="8" fill="#1a1a1a" stroke="#f59e0b" stroke-width="1.5"/>
  <rect x="600" y="65" width="110" height="5" rx="3" fill="#f59e0b"/>
  <text x="655" y="92" text-anchor="middle" fill="#fcd34d" font-family="monospace" font-size="9" font-weight="bold">SWITCH ROUTER</text>
  <text x="655" y="107" text-anchor="middle" fill="#777" font-family="monospace" font-size="8">5 Routes</text>
  <text x="655" y="120" text-anchor="middle" fill="#555" font-family="monospace" font-size="7">AI Category Based</text>
  <line x1="715" y1="90" x2="760" y2="55" stroke="#CC3300" stroke-width="0.75" stroke-dasharray="3,2"/>
  <line x1="715" y1="100" x2="760" y2="97" stroke="#7c3aed" stroke-width="0.75" stroke-dasharray="3,2"/>
  <line x1="715" y1="108" x2="760" y2="140" stroke="#16a34a" stroke-width="0.75" stroke-dasharray="3,2"/>
  <line x1="715" y1="116" x2="760" y2="182" stroke="#0ea5e9" stroke-width="0.75" stroke-dasharray="3,2"/>
  <line x1="715" y1="124" x2="760" y2="224" stroke="#888" stroke-width="0.75" stroke-dasharray="3,2"/>
  <rect x="760" y="40" width="125" height="30" rx="6" fill="#1a1a1a" stroke="#CC3300" stroke-width="1"/>
  <rect x="760" y="40" width="125" height="4" rx="2" fill="#CC3300"/>
  <text x="822" y="57" text-anchor="middle" fill="#CC3300" font-family="monospace" font-size="8" font-weight="bold">BEGINNER</text>
  <text x="822" y="67" text-anchor="middle" fill="#555" font-family="monospace" font-size="7">MIG / STICK</text>
  <rect x="760" y="82" width="125" height="30" rx="6" fill="#1a1a1a" stroke="#7c3aed" stroke-width="1"/>
  <rect x="760" y="82" width="125" height="4" rx="2" fill="#7c3aed"/>
  <text x="822" y="99" text-anchor="middle" fill="#a78bfa" font-family="monospace" font-size="8" font-weight="bold">ADVANCED</text>
  <text x="822" y="109" text-anchor="middle" fill="#555" font-family="monospace" font-size="7">TIG Welding</text>
  <rect x="760" y="124" width="125" height="30" rx="6" fill="#1a1a1a" stroke="#16a34a" stroke-width="1"/>
  <rect x="760" y="124" width="125" height="4" rx="2" fill="#16a34a"/>
  <text x="822" y="141" text-anchor="middle" fill="#4ade80" font-family="monospace" font-size="8" font-weight="bold">CLIENT</text>
  <text x="822" y="151" text-anchor="middle" fill="#555" font-family="monospace" font-size="7">Local Welding Work</text>
  <rect x="760" y="166" width="125" height="30" rx="6" fill="#1a1a1a" stroke="#0ea5e9" stroke-width="1"/>
  <rect x="760" y="166" width="125" height="4" rx="2" fill="#0ea5e9"/>
  <text x="822" y="183" text-anchor="middle" fill="#38bdf8" font-family="monospace" font-size="8" font-weight="bold">KIDS</text>
  <text x="822" y="193" text-anchor="middle" fill="#555" font-family="monospace" font-size="7">Workshop Parents</text>
  <rect x="760" y="208" width="125" height="30" rx="6" fill="#1a1a1a" stroke="#888" stroke-width="1"/>
  <rect x="760" y="208" width="125" height="4" rx="2" fill="#888"/>
  <text x="822" y="225" text-anchor="middle" fill="#aaa" font-family="monospace" font-size="8" font-weight="bold">CUSTOM</text>
  <text x="822" y="235" text-anchor="middle" fill="#555" font-family="monospace" font-size="7">General Inquiries</text>
  <rect x="20" y="185" width="430" height="44" rx="8" fill="#1a1a1a" stroke="#f97316" stroke-width="1"/>
  <rect x="20" y="185" width="430" height="4" rx="2" fill="#f97316"/>
  <text x="235" y="207" text-anchor="middle" fill="#fb923c" font-family="monospace" font-size="10" font-weight="bold">CLOUDFLARE TUNNEL</text>
  <text x="235" y="222" text-anchor="middle" fill="#555" font-family="monospace" font-size="8">HTTPS · Zero Exposed Ports · No Public IP · Enterprise-Grade Security</text>
  <rect x="20" y="255" width="100" height="58" rx="8" fill="#1a1a1a" stroke="#2a2a2a" stroke-width="1"/>
  <text x="70" y="281" text-anchor="middle" fill="#CC3300" font-family="monospace" font-size="20" font-weight="bold">&lt;30s</text>
  <text x="70" y="298" text-anchor="middle" fill="#555" font-family="monospace" font-size="7">Response Time</text>
  <rect x="133" y="255" width="100" height="58" rx="8" fill="#1a1a1a" stroke="#2a2a2a" stroke-width="1"/>
  <text x="183" y="281" text-anchor="middle" fill="#4ade80" font-family="monospace" font-size="20" font-weight="bold">100%</text>
  <text x="183" y="298" text-anchor="middle" fill="#555" font-family="monospace" font-size="7">Leads Logged</text>
  <rect x="246" y="255" width="100" height="58" rx="8" fill="#1a1a1a" stroke="#2a2a2a" stroke-width="1"/>
  <text x="296" y="281" text-anchor="middle" fill="#fcd34d" font-family="monospace" font-size="20" font-weight="bold">$0</text>
  <text x="296" y="298" text-anchor="middle" fill="#555" font-family="monospace" font-size="7">Monthly SaaS Cost</text>
  <rect x="359" y="255" width="100" height="58" rx="8" fill="#1a1a1a" stroke="#2a2a2a" stroke-width="1"/>
  <text x="409" y="281" text-anchor="middle" fill="#38bdf8" font-family="monospace" font-size="20" font-weight="bold">5</text>
  <text x="409" y="298" text-anchor="middle" fill="#555" font-family="monospace" font-size="7">AI Categories</text>
  <rect x="20" y="333" width="860" height="38" rx="6" fill="#1a1a1a"/>
  <text x="450" y="356" text-anchor="middle" fill="#444" font-family="monospace" font-size="8">n8n  ·  Ollama / LLaMA 3  ·  Google Sheets  ·  Cloudflare Tunnel  ·  Pushover  ·  Gmail SMTP  ·  Self-Hosted</text>
  <rect x="730" y="255" width="150" height="58" rx="8" fill="#CC3300"/>
  <text x="805" y="279" text-anchor="middle" fill="white" font-family="monospace" font-size="11" font-weight="bold">JPARO SYSTEMS</text>
  <text x="805" y="294" text-anchor="middle" fill="#ffccbb" font-family="monospace" font-size="7">AI Automation</text>
  <text x="805" y="306" text-anchor="middle" fill="#ffccbb" font-family="monospace" font-size="7">Self-Hosted Infrastructure</text>
</svg>
